<svg width="100" height="100" viewBox="0 0 100 100" xmlns="http://www.w3.org/2000/svg" xmlns:xlink="http://www.w3.org/1999/xlink"><title>8B43F035-5FF5-4AEC-AD8C-708BE5DE0700</title><defs><circle id="a" cx="50" cy="50" r="50"/><mask id="b" x="0" y="0" width="100" height="100" fill="#fff"><use xlink:href="#a"/></mask></defs><g fill="none" fill-rule="evenodd"><use stroke="#E10000" mask="url(#b)" stroke-width="10" xlink:href="#a"/><path d="M54.243 50l8.485-8.485a1.997 1.997 0 0 0 .001-2.827l-1.417-1.417a2.001 2.001 0 0 0-2.827.001L50 45.757l-8.485-8.485a1.997 1.997 0 0 0-2.827-.001l-1.417 1.417a2.001 2.001 0 0 0 .001 2.827L45.757 50l-8.485 8.485a1.997 1.997 0 0 0-.001 2.827l1.417 1.417c.777.778 2.046.78 2.827-.001L50 54.243l8.485 8.485a1.997 1.997 0 0 0 2.827.001l1.417-1.417a2.001 2.001 0 0 0-.001-2.827L54.243 50z" fill="#E10000"/></g></svg>