<svg xmlns="http://www.w3.org/2000/svg" width="21" height="21" viewBox="0 0 21 21">
    <g fill="#17C37B" fill-rule="evenodd">
        <path fill-rule="nonzero" d="M10.5 19.95a9.45 9.45 0 1 0 0-18.9 9.45 9.45 0 0 0 0 18.9zm0 1.05C4.701 21 0 16.299 0 10.5S4.701 0 10.5 0 21 4.701 21 10.5 16.299 21 10.5 21z"/>
        <path d="M10.165 11.997l-2.15-2.151a.638.638 0 0 0-.903.007.636.636 0 0 0-.007.902l2.264 2.263a.64.64 0 0 0 1.093.5.65.65 0 0 0 .316-.316l4.238-4.238a.642.642 0 1 0-.909-.909l-3.942 3.942z"/>
    </g>
</svg>
