<svg width="100" height="100" viewBox="0 0 100 100" xmlns="http://www.w3.org/2000/svg" xmlns:xlink="http://www.w3.org/1999/xlink"><title>DD0314EC-3A1C-4678-894B-DE91178039A0</title><defs><circle id="a" cx="50" cy="50" r="50"/><mask id="b" x="0" y="0" width="100" height="100" fill="#fff"><use xlink:href="#a"/></mask></defs><g fill="none" fill-rule="evenodd"><use stroke="#17C37B" mask="url(#b)" stroke-width="10" xlink:href="#a"/><path d="M45.757 59.314l-9.905-9.906a1.993 1.993 0 0 0-2.821.005l-1.417 1.417a1.997 1.997 0 0 0-.005 2.82l12.74 12.741c.39.39.9.583 1.41.582a2.011 2.011 0 0 0 1.413-.588l21.213-21.213a1.997 1.997 0 0 0 .001-2.827l-1.417-1.418a2.001 2.001 0 0 0-2.827.002L45.757 59.314z" fill="#17C37B"/></g></svg>